<?xml version="1.0" encoding="UTF-8"?>
<svg version="1.1" xmlns="http://www.w3.org/2000/svg" width="403" height="403">
<path d="M0 0 C1.9375 0.3125 1.9375 0.3125 4 1 C4.33 1.99 4.66 2.98 5 4 C5.99 4.33 6.98 4.66 8 5 C8 5.66 8 6.32 8 7 C8.928125 7.4021875 8.928125 7.4021875 9.875 7.8125 C12 9 12 9 14 12 C14.16699219 14.5206604 14.16699219 14.5206604 14.046875 17.56884766 C13.98512085 19.28217789 13.98512085 19.28217789 13.92211914 21.03012085 C13.83692017 22.89079697 13.83692017 22.89079697 13.75 24.7890625 C13.6977124 26.07938385 13.6454248 27.3697052 13.59155273 28.6991272 C13.04746271 41.67417111 12.19583036 54.63066284 11.27050781 67.58349609 C10.9946634 71.44979914 10.72729093 75.31662627 10.4609375 79.18359375 C10.2869398 81.67190871 10.11247894 84.16019134 9.9375 86.6484375 C9.81870483 88.36080093 9.81870483 88.36080093 9.69750977 90.10775757 C9.31340319 95.44600264 8.85502615 100.71567358 8 106 C9.65 106 11.3 106 13 106 C13.06993164 105.33919434 13.13986328 104.67838867 13.21191406 103.99755859 C14.91250132 88.04430035 16.854447 72.13841318 19.0234375 56.2421875 C19.66402419 51.54246243 20.27482436 46.8407955 20.8515625 42.1328125 C20.98304688 41.07223633 21.11453125 40.01166016 21.25 38.91894531 C21.49285386 36.94765496 21.73019149 34.97567395 21.9609375 33.00292969 C22.12335938 31.6982373 22.12335938 31.6982373 22.2890625 30.3671875 C22.42368896 29.23966064 22.42368896 29.23966064 22.56103516 28.08935547 C23.04033084 25.80803595 23.87526533 24.03279843 25 22 C26.72240784 23.39548333 28.40201725 24.84387495 30.0625 26.3125 C31.00222656 27.11300781 31.94195312 27.91351562 32.91015625 28.73828125 C36.05365728 33.64449314 35.00597422 37.43872072 34 43 C33.81800049 44.03423096 33.63600098 45.06846191 33.44848633 46.1340332 C32.79982657 49.59915346 32.09412793 53.04883423 31.375 56.5 C30.97717749 58.44757483 30.57937184 60.39515319 30.18222046 62.34286499 C29.75789782 64.42065025 29.33112378 66.49792319 28.90429688 68.57519531 C27.44178946 75.71102942 26.02338104 82.85575939 24.59893799 89.99926758 C23.84086747 93.7992852 23.08052724 97.59884838 22.3203125 101.3984375 C21.93770264 103.31148682 21.93770264 103.31148682 21.54736328 105.26318359 C21.3667334 106.16633301 21.18610352 107.06948242 21 108 C21.68457275 108.09869385 22.36914551 108.1973877 23.07446289 108.29907227 C29.70151561 109.36202528 35.37483372 111.09154554 41.4375 113.9375 C42.21287109 114.28490234 42.98824219 114.63230469 43.78710938 114.99023438 C47.53259917 116.70034192 50.74743223 118.44657808 54 121 C62.40289225 108.71224353 70.77556465 96.40796315 79 84 C79.86178829 82.70039424 80.72377224 81.4009182 81.5859375 80.1015625 C82.23139526 79.12703125 82.23139526 79.12703125 82.88989258 78.1328125 C83.74435846 76.85183712 84.60601993 75.57562784 85.4753418 74.3046875 C87.37255601 71.52403766 89.08200639 68.83993934 90.62109375 65.8359375 C92.2201647 62.88700146 93.30702604 61.01625417 96 59 C101.27353393 57.84273303 106.68343331 58.42558103 112 59 C108.01976524 65.14930003 103.78898786 71.00310158 99.25 76.75 C98.00881694 78.33310002 96.7679331 79.91643468 95.52734375 81.5 C94.92519043 82.26699219 94.32303711 83.03398438 93.70263672 83.82421875 C91.38614741 86.78443566 89.0969535 89.76503661 86.8125 92.75 C84.3280693 95.99073857 81.83274454 99.22050005 79.29296875 102.41796875 C72.92805 110.43428974 66.87340213 118.61670586 61 127 C62.32 127.33 63.64 127.66 65 128 C65.62648438 127.2059375 66.25296875 126.411875 66.8984375 125.59375 C68.12433594 124.06234375 68.12433594 124.06234375 69.375 122.5 C70.18710937 121.4790625 70.99921875 120.458125 71.8359375 119.40625 C72.55007813 118.6121875 73.26421875 117.818125 74 117 C74.66 117 75.32 117 76 117 C76.23332031 116.44699219 76.46664063 115.89398438 76.70703125 115.32421875 C78.33635535 112.39537331 80.3894459 110.25132312 82.6875 107.8125 C86.62128126 103.57699601 90.22240744 99.25241671 93.625 94.58203125 C94.305625 93.79892578 94.305625 93.79892578 95 93 C95.66 93 96.32 93 97 93 C97.23332031 92.44828125 97.46664063 91.8965625 97.70703125 91.328125 C99.34019284 88.38744733 101.39339207 86.20922749 103.6875 83.75 C104.59686233 82.76609442 105.50571454 81.78171713 106.4140625 80.796875 C107.26742188 79.87390625 108.12078125 78.9509375 109 78 C110.19442225 76.67286417 111.38283815 75.34027309 112.5625 74 C113.12582031 73.38125 113.68914062 72.7625 114.26953125 72.125 C116.12556659 69.94903107 116.12556659 69.94903107 117.76171875 67.0625 C122.67118095 59.50057787 122.67118095 59.50057787 127.26025391 58.51416016 C132.87721616 58.04239146 138.40326748 58.43634128 144 59 C146.06591435 74.6747152 146.06591435 74.6747152 142.81933594 79.90039062 C139.62749601 83.37005027 135.79742135 85.98708247 131.91601562 88.62939453 C128.86985187 90.80844185 126.20689114 93.35784843 123.5 95.9375 C112.69381599 106 112.69381599 106 110 106 C110 106.66 110 107.32 110 108 C108.44759659 109.39325954 106.82970015 110.71380128 105.1875 112 C99.96543842 116.16006201 95.07195055 120.55054302 90.21484375 125.12890625 C88 127 88 127 86 127 C86 127.66 86 128.32 86 129 C84.21895282 130.60178593 82.37462722 132.13381926 80.5 133.625 C79.4790625 134.44226563 78.458125 135.25953125 77.40625 136.1015625 C76.6121875 136.72804687 75.818125 137.35453125 75 138 C75.33 139.32 75.66 140.64 76 142 C84.98481095 135.70517044 93.70818896 129.16663149 102.29736328 122.34375 C105.01090592 120.20217577 107.75493108 118.10091165 110.5 116 C115.04968074 112.51500551 119.56410737 108.98840749 124.0625 105.4375 C128.61276184 101.85154047 133.18718419 98.30125765 137.8125 94.8125 C138.78832031 94.07644531 139.76414062 93.34039062 140.76953125 92.58203125 C143 91 143 91 144 91 C145.29218618 101.7551658 145.29218618 101.7551658 144 107 C140.9678783 110.8188654 137.27193192 112.74908218 133 115 C131.2412172 116.11121918 129.49101318 117.23614175 127.75 118.375 C126.82960938 118.9525 125.90921875 119.53 124.9609375 120.125 C110.38971947 129.35215654 96.25025565 139.28783764 82 149 C82.3304834 149.5158667 82.6609668 150.0317334 83.00146484 150.56323242 C88.85583205 159.79676695 95 170.77047336 95 182 C95.87172852 181.82460693 96.74345703 181.64921387 97.64160156 181.46850586 C107.57136725 179.47233585 117.50322406 177.48680362 127.43688965 175.51013184 C129.14437743 175.17029322 130.85181569 174.83020569 132.5592041 174.48986816 C137.53859988 173.49751526 142.51897228 172.5103452 147.50085449 171.5305481 C149.07808698 171.21960647 150.65499535 170.90701608 152.23156738 170.59274292 C154.44258067 170.15237622 156.65469837 169.71803803 158.8671875 169.28515625 C160.12644043 169.03644775 161.38569336 168.78773926 162.68310547 168.53149414 C165.57423935 168.06822324 168.08991137 167.71567548 171 168 C173.67578125 170.1875 173.67578125 170.1875 176.3125 173 C177.19550781 173.928125 178.07851563 174.85625 178.98828125 175.8125 C179.65214844 176.534375 180.31601562 177.25625 181 178 C178.23770463 179.51800049 175.93730779 180.32088735 172.81518555 180.71435547 C171.99355927 180.82154907 171.17193298 180.92874268 170.32540894 181.03918457 C168.99450729 181.20154602 168.99450729 181.20154602 167.63671875 181.3671875 C166.70417267 181.4868689 165.77162659 181.60655029 164.81082153 181.7298584 C161.7705428 182.11844346 158.7290884 182.49681552 155.6875 182.875 C153.60172091 183.13946145 151.51602771 183.40460118 149.43041992 183.67041016 C145.25579253 184.20164343 141.08072614 184.72920091 136.90527344 185.25390625 C131.65622489 185.91488969 126.40959337 186.59296182 121.1640625 187.28125 C119.72045922 187.47021664 118.27685571 187.65918155 116.83325195 187.84814453 C114.20668829 188.19212877 111.5802475 188.53701333 108.95385742 188.88232422 C107.79990479 189.0320166 106.64595215 189.18170898 105.45703125 189.3359375 C103.9716687 189.53002197 103.9716687 189.53002197 102.45629883 189.72802734 C100 190 100 190 97 190 C97 191.65 97 193.3 97 195 C98.06524902 194.88027832 99.13049805 194.76055664 100.22802734 194.63720703 C115.22245354 193.01573711 130.25333947 192.05987186 145.30322266 191.14013672 C148.92953595 190.91851157 152.555427 190.69065858 156.18123817 190.46098137 C159.01746531 190.28193474 161.8538754 190.10593633 164.69034958 189.93085098 C166.66773904 189.80833219 168.6449837 189.6834834 170.6222229 189.55856323 C189.97770923 188.38662554 189.97770923 188.38662554 194.125 190.875 C196 193 196 193 196 195 C196.99 195.33 197.98 195.66 199 196 C199 196.66 199 197.32 199 198 C200.32 198.66 201.64 199.32 203 200 C202.6875 201.9375 202.6875 201.9375 202 204 C201.01 204.33 200.02 204.66 199 205 C198.67 205.99 198.34 206.98 198 208 C197.34 208 196.68 208 196 208 C195.731875 208.61875 195.46375 209.2375 195.1875 209.875 C194 212 194 212 191 214 C188.4793396 214.16699219 188.4793396 214.16699219 185.43115234 214.046875 C183.71782211 213.98512085 183.71782211 213.98512085 181.96987915 213.92211914 C180.10920303 213.83692017 180.10920303 213.83692017 178.2109375 213.75 C176.92061615 213.6977124 175.6302948 213.6454248 174.3008728 213.59155273 C161.32582889 213.04746271 148.36933716 212.19583036 135.41650391 211.27050781 C131.55020086 210.9946634 127.68337373 210.72729093 123.81640625 210.4609375 C121.32809129 210.2869398 118.83980866 210.11247894 116.3515625 209.9375 C114.63919907 209.81870483 114.63919907 209.81870483 112.89224243 209.69750977 C107.55399736 209.31340319 102.28432642 208.85502615 97 208 C97 209.65 97 211.3 97 213 C97.66080566 213.06993164 98.32161133 213.13986328 99.00244141 213.21191406 C114.95569965 214.91250132 130.86158682 216.854447 146.7578125 219.0234375 C151.45753757 219.66402419 156.1592045 220.27482436 160.8671875 220.8515625 C161.92776367 220.98304688 162.98833984 221.11453125 164.08105469 221.25 C166.05234504 221.49285386 168.02432605 221.73019149 169.99707031 221.9609375 C170.86686523 222.06921875 171.73666016 222.1775 172.6328125 222.2890625 C173.38449707 222.37881348 174.13618164 222.46856445 174.91064453 222.56103516 C177.19196405 223.04033084 178.96720157 223.87526533 181 225 C179.60451667 226.72240784 178.15612505 228.40201725 176.6875 230.0625 C175.88699219 231.00222656 175.08648437 231.94195312 174.26171875 232.91015625 C169.35550686 236.05365728 165.56127928 235.00597422 160 234 C158.96576904 233.81800049 157.93153809 233.63600098 156.8659668 233.44848633 C153.40084654 232.79982657 149.95116577 232.09412793 146.5 231.375 C144.55242517 230.97717749 142.60484681 230.57937184 140.65713501 230.18222046 C138.57934975 229.75789782 136.50207681 229.33112378 134.42480469 228.90429688 C127.28897058 227.44178946 120.14424061 226.02338104 113.00073242 224.59893799 C109.2007148 223.84086747 105.40115162 223.08052724 101.6015625 222.3203125 C100.32619629 222.06523926 99.05083008 221.81016602 97.73681641 221.54736328 C96.83366699 221.3667334 95.93051758 221.18610352 95 221 C94.90130615 221.68457275 94.8026123 222.36914551 94.70092773 223.07446289 C93.63797472 229.70151561 91.90845446 235.37483372 89.0625 241.4375 C88.71509766 242.21287109 88.36769531 242.98824219 88.00976562 243.78710938 C86.29965808 247.53259917 84.55342192 250.74743223 82 254 C98.0778211 265.01876893 114.25802997 275.87632115 130.49609375 286.65722656 C131.98276963 287.64437433 133.46920073 288.63189092 134.95532227 289.61987305 C136.23632536 290.47140325 137.51801675 291.32189931 138.80053711 292.17114258 C142.88777135 294.88777135 142.88777135 294.88777135 144 296 C144.07319621 298.69654854 144.09242537 301.36691458 144.0625 304.0625 C144.05798828 304.82111328 144.05347656 305.57972656 144.04882812 306.36132812 C144.0370068 308.24091871 144.01907078 310.12046899 144 312 C137.85069997 308.01976524 131.99689842 303.78898786 126.25 299.25 C124.66689998 298.00881694 123.08356532 296.7679331 121.5 295.52734375 C120.73300781 294.92519043 119.96601563 294.32303711 119.17578125 293.70263672 C116.21556434 291.38614741 113.23496339 289.0969535 110.25 286.8125 C107.00926143 284.3280693 103.77949995 281.83274454 100.58203125 279.29296875 C92.56571026 272.92805 84.38329414 266.87340213 76 261 C75.67 262.32 75.34 263.64 75 265 C75.7940625 265.62648438 76.588125 266.25296875 77.40625 266.8984375 C78.93765625 268.12433594 78.93765625 268.12433594 80.5 269.375 C81.5209375 270.18710937 82.541875 270.99921875 83.59375 271.8359375 C84.3878125 272.55007813 85.181875 273.26421875 86 274 C86 274.66 86 275.32 86 276 C86.84691406 276.36738281 86.84691406 276.36738281 87.7109375 276.7421875 C90.41292072 278.226895 92.37295 280.01966335 94.625 282.125 C98.96686348 286.12442484 103.46897024 289.79560042 108.1640625 293.37109375 C108.76992188 293.90863281 109.37578125 294.44617188 110 295 C110 295.66 110 296.32 110 297 C110.55171875 297.23332031 111.1034375 297.46664063 111.671875 297.70703125 C114.61255267 299.34019284 116.79077251 301.39339207 119.25 303.6875 C120.23390558 304.59686233 121.21828287 305.50571454 122.203125 306.4140625 C123.12609375 307.26742188 124.0490625 308.12078125 125 309 C126.32713583 310.19442225 127.65972691 311.38283815 129 312.5625 C129.61875 313.12582031 130.2375 313.68914062 130.875 314.26953125 C133.05096893 316.12556659 133.05096893 316.12556659 135.9375 317.76171875 C143.49942213 322.67118095 143.49942213 322.67118095 144.48583984 327.26025391 C144.95760854 332.87721616 144.56365872 338.40326748 144 344 C128.3252848 346.06591435 128.3252848 346.06591435 123.09960938 342.81933594 C119.62994973 339.62749601 117.01291753 335.79742135 114.37060547 331.91601562 C112.19155815 328.86985187 109.64215157 326.20689114 107.0625 323.5 C97 312.69381599 97 312.69381599 97 310 C96.34 310 95.68 310 95 310 C93.60674046 308.44759659 92.28619872 306.82970015 91 305.1875 C86.83993799 299.96543842 82.44945698 295.07195055 77.87109375 290.21484375 C76 288 76 288 76 286 C75.34 286 74.68 286 74 286 C72.39821407 284.21895282 70.86618074 282.37462722 69.375 280.5 C68.55773437 279.4790625 67.74046875 278.458125 66.8984375 277.40625 C66.27195312 276.6121875 65.64546875 275.818125 65 275 C63.68 275.33 62.36 275.66 61 276 C67.29482956 284.98481095 73.83336851 293.70818896 80.65625 302.29736328 C82.79782423 305.01090592 84.89908835 307.75493108 87 310.5 C90.48499449 315.04968074 94.01159251 319.56410737 97.5625 324.0625 C101.14845953 328.61276184 104.69874235 333.18718419 108.1875 337.8125 C108.92355469 338.78832031 109.65960938 339.76414062 110.41796875 340.76953125 C112 343 112 343 112 344 C98.14908247 345.66412723 98.14908247 345.66412723 93.47265625 342.04296875 C91.38718932 339.13013866 89.6905473 336.15816528 88 333 C86.92855015 331.32277648 85.85658359 329.64574689 84.76293945 327.98291016 C83.60056092 326.21278296 82.46240688 324.42886614 81.328125 322.640625 C72.55711176 308.87439484 63.21246801 295.47161905 54 282 C53.28166992 282.47614746 53.28166992 282.47614746 52.54882812 282.96191406 C47.7001433 286.09501873 42.84312094 288.57966126 37.5 290.75 C36.79230469 291.05292969 36.08460938 291.35585938 35.35546875 291.66796875 C30.53532549 293.65066022 26.19432913 294.5554403 21 295 C21.17539307 295.87172852 21.35078613 296.74345703 21.53149414 297.64160156 C23.52766415 307.57136725 25.51319638 317.50322406 27.48986816 327.43688965 C27.82970678 329.14437743 28.16979431 330.85181569 28.51013184 332.5592041 C29.50248474 337.53859988 30.4896548 342.51897228 31.4694519 347.50085449 C31.78039353 349.07808698 32.09298392 350.65499535 32.40725708 352.23156738 C32.84762378 354.44258067 33.28196197 356.65469837 33.71484375 358.8671875 C33.96355225 360.12644043 34.21226074 361.38569336 34.46850586 362.68310547 C34.93177676 365.57423935 35.28432452 368.08991137 35 371 C32.8125 373.67578125 32.8125 373.67578125 30 376.3125 C29.071875 377.19550781 28.14375 378.07851563 27.1875 378.98828125 C26.465625 379.65214844 25.74375 380.31601562 25 381 C23.45523624 378.19988438 22.67368048 375.87605321 22.28564453 372.70751953 C22.17845093 371.86269012 22.07125732 371.01786072 21.96081543 370.14743042 C21.79845398 368.77894455 21.79845398 368.77894455 21.6328125 367.3828125 C21.5131311 366.42529083 21.39344971 365.46776917 21.2701416 364.48123169 C20.88175243 361.36327386 20.50338122 358.24418667 20.125 355.125 C19.72823992 351.91898276 19.32902975 348.71327627 18.92977905 345.50756836 C18.66410664 343.37242396 18.39931565 341.2371697 18.13540649 339.10180664 C16.87361651 328.90620332 15.51226284 318.72556703 14.11767578 308.54736328 C13.89313721 306.89196533 13.89313721 306.89196533 13.6640625 305.203125 C13.53467285 304.26114258 13.4052832 303.31916016 13.27197266 302.34863281 C13 300 13 300 13 297 C11.35 297 9.7 297 8 297 C8.11972168 298.06524902 8.23944336 299.13049805 8.36279297 300.22802734 C9.98426289 315.22245354 10.94012814 330.25333947 11.85986328 345.30322266 C12.08148843 348.92953595 12.30934142 352.555427 12.53901863 356.18123817 C12.71806526 359.01746531 12.89406367 361.8538754 13.06914902 364.69034958 C13.19166781 366.66773904 13.3165166 368.6449837 13.44143677 370.6222229 C14.61337446 389.97770923 14.61337446 389.97770923 12.125 394.125 C10 396 10 396 8 396 C7.67 396.99 7.34 397.98 7 399 C6.34 399 5.68 399 5 399 C4.34 400.32 3.68 401.64 3 403 C1.0625 402.6875 1.0625 402.6875 -1 402 C-1.33 401.01 -1.66 400.02 -2 399 C-2.99 398.67 -3.98 398.34 -5 398 C-5 397.34 -5 396.68 -5 396 C-5.61875 395.731875 -6.2375 395.46375 -6.875 395.1875 C-9 394 -9 394 -11 391 C-11.16699219 388.4793396 -11.16699219 388.4793396 -11.046875 385.43115234 C-10.98512085 383.71782211 -10.98512085 383.71782211 -10.92211914 381.96987915 C-10.83692017 380.10920303 -10.83692017 380.10920303 -10.75 378.2109375 C-10.6977124 376.92061615 -10.6454248 375.6302948 -10.59155273 374.3008728 C-10.04746271 361.32582889 -9.19583036 348.36933716 -8.27050781 335.41650391 C-7.9946634 331.55020086 -7.72729093 327.68337373 -7.4609375 323.81640625 C-7.2869398 321.32809129 -7.11247894 318.83980866 -6.9375 316.3515625 C-6.81870483 314.63919907 -6.81870483 314.63919907 -6.69750977 312.89224243 C-6.31340319 307.55399736 -5.85502615 302.28432642 -5 297 C-6.65 297 -8.3 297 -10 297 C-10.06993164 297.66080566 -10.13986328 298.32161133 -10.21191406 299.00244141 C-11.91250132 314.95569965 -13.854447 330.86158682 -16.0234375 346.7578125 C-16.66402419 351.45753757 -17.27482436 356.1592045 -17.8515625 360.8671875 C-17.98304688 361.92776367 -18.11453125 362.98833984 -18.25 364.08105469 C-18.49285386 366.05234504 -18.73019149 368.02432605 -18.9609375 369.99707031 C-19.06921875 370.86686523 -19.1775 371.73666016 -19.2890625 372.6328125 C-19.37881348 373.38449707 -19.46856445 374.13618164 -19.56103516 374.91064453 C-20.04033084 377.19196405 -20.87526533 378.96720157 -22 381 C-23.72240784 379.60451667 -25.40201725 378.15612505 -27.0625 376.6875 C-28.00222656 375.88699219 -28.94195312 375.08648437 -29.91015625 374.26171875 C-33.05365728 369.35550686 -32.00597422 365.56127928 -31 360 C-30.81800049 358.96576904 -30.63600098 357.93153809 -30.44848633 356.8659668 C-29.79982657 353.40084654 -29.09412793 349.95116577 -28.375 346.5 C-27.97717749 344.55242517 -27.57937184 342.60484681 -27.18222046 340.65713501 C-26.75789782 338.57934975 -26.33112378 336.50207681 -25.90429688 334.42480469 C-24.44178946 327.28897058 -23.02338104 320.14424061 -21.59893799 313.00073242 C-20.84086747 309.2007148 -20.08052724 305.40115162 -19.3203125 301.6015625 C-19.06523926 300.32619629 -18.81016602 299.05083008 -18.54736328 297.73681641 C-18.3667334 296.83366699 -18.18610352 295.93051758 -18 295 C-18.96860962 294.82368042 -18.96860962 294.82368042 -19.95678711 294.64379883 C-30.1396667 292.71297001 -39.39759009 289.28160152 -48.29296875 283.91796875 C-49.97054314 282.842127 -49.97054314 282.842127 -52 283 C-53.45198128 284.75691081 -53.45198128 284.75691081 -54.90625 287.06640625 C-55.48020508 287.93700684 -56.05416016 288.80760742 -56.64550781 289.70458984 C-57.25749023 290.6477002 -57.86947266 291.59081055 -58.5 292.5625 C-59.77600957 294.50392735 -61.0520514 296.44533349 -62.328125 298.38671875 C-62.95525391 299.34626465 -63.58238281 300.30581055 -64.22851562 301.29443359 C-66.5473225 304.83591896 -68.89585802 308.35695337 -71.25 311.875 C-72.04322937 313.0636282 -72.83620025 314.25242895 -73.62890625 315.44140625 C-74.01578613 316.02164551 -74.40266602 316.60188477 -74.80126953 317.19970703 C-76.50192413 319.75380622 -78.19821298 322.31078598 -79.89208984 324.86938477 C-80.74559512 326.14964268 -81.60644912 327.42503635 -82.47509766 328.69506836 C-84.37246436 331.4757688 -86.08194928 334.15994921 -87.62109375 337.1640625 C-89.2201647 340.11299854 -90.30702604 341.98374583 -93 344 C-98.27353393 345.15726697 -103.68343331 344.57441897 -109 344 C-105.01976524 337.85069997 -100.78898786 331.99689842 -96.25 326.25 C-95.00881694 324.66689998 -93.7679331 323.08356532 -92.52734375 321.5 C-91.92519043 320.73300781 -91.32303711 319.96601563 -90.70263672 319.17578125 C-88.38614741 316.21556434 -86.0969535 313.23496339 -83.8125 310.25 C-81.3280693 307.00926143 -78.83274454 303.77949995 -76.29296875 300.58203125 C-69.92805 292.56571026 -63.87340213 284.38329414 -58 276 C-59.32 275.67 -60.64 275.34 -62 275 C-62.62648437 275.7940625 -63.25296875 276.588125 -63.8984375 277.40625 C-65.12433594 278.93765625 -65.12433594 278.93765625 -66.375 280.5 C-67.59316406 282.03140625 -67.59316406 282.03140625 -68.8359375 283.59375 C-69.90714844 284.78484375 -69.90714844 284.78484375 -71 286 C-71.66 286 -72.32 286 -73 286 C-73.23332031 286.55300781 -73.46664062 287.10601562 -73.70703125 287.67578125 C-75.33635535 290.60462669 -77.3894459 292.74867688 -79.6875 295.1875 C-83.62128126 299.42300399 -87.22240744 303.74758329 -90.625 308.41796875 C-91.07875 308.94003906 -91.5325 309.46210938 -92 310 C-92.66 310 -93.32 310 -94 310 C-94.23332031 310.55171875 -94.46664062 311.1034375 -94.70703125 311.671875 C-96.34019284 314.61255267 -98.39339207 316.79077251 -100.6875 319.25 C-101.59686233 320.23390558 -102.50571454 321.21828287 -103.4140625 322.203125 C-104.69410156 323.58757812 -104.69410156 323.58757812 -106 325 C-107.19442225 326.32713583 -108.38283815 327.65972691 -109.5625 329 C-110.12582031 329.61875 -110.68914062 330.2375 -111.26953125 330.875 C-113.12556659 333.05096893 -113.12556659 333.05096893 -114.76171875 335.9375 C-119.67118095 343.49942213 -119.67118095 343.49942213 -124.26025391 344.48583984 C-129.87721616 344.95760854 -135.40326748 344.56365872 -141 344 C-143.06591435 328.3252848 -143.06591435 328.3252848 -139.81933594 323.09960938 C-136.62749601 319.62994973 -132.79742135 317.01291753 -128.91601562 314.37060547 C-125.86985187 312.19155815 -123.20689114 309.64215157 -120.5 307.0625 C-109.69381599 297 -109.69381599 297 -107 297 C-107 296.34 -107 295.68 -107 295 C-105.44759659 293.60674046 -103.82970015 292.28619872 -102.1875 291 C-96.96543842 286.83993799 -92.07195055 282.44945698 -87.21484375 277.87109375 C-85 276 -85 276 -83 276 C-83 275.34 -83 274.68 -83 274 C-81.21895282 272.39821407 -79.37462722 270.86618074 -77.5 269.375 C-76.4790625 268.55773437 -75.458125 267.74046875 -74.40625 266.8984375 C-73.6121875 266.27195312 -72.818125 265.64546875 -72 265 C-72.33 263.68 -72.66 262.36 -73 261 C-81.98481095 267.29482956 -90.70818896 273.83336851 -99.29736328 280.65625 C-102.01090592 282.79782423 -104.75493108 284.89908835 -107.5 287 C-112.04968074 290.48499449 -116.56410737 294.01159251 -121.0625 297.5625 C-125.61276184 301.14845953 -130.18718419 304.69874235 -134.8125 308.1875 C-135.78832031 308.92355469 -136.76414063 309.65960938 -137.76953125 310.41796875 C-140 312 -140 312 -141 312 C-142.66412723 298.14908247 -142.66412723 298.14908247 -139.04296875 293.47265625 C-136.13013866 291.38718932 -133.15816528 289.6905473 -130 288 C-128.32277648 286.92855015 -126.64574689 285.85658359 -124.98291016 284.76293945 C-123.21278296 283.60056092 -121.42886614 282.46240688 -119.640625 281.328125 C-105.87439484 272.55711176 -92.47161905 263.21246801 -79 254 C-79.47614746 253.28166992 -79.47614746 253.28166992 -79.96191406 252.54882812 C-83.09501873 247.7001433 -85.57966126 242.84312094 -87.75 237.5 C-88.05292969 236.79230469 -88.35585937 236.08460938 -88.66796875 235.35546875 C-90.65066022 230.53532549 -91.5554403 226.19432913 -92 221 C-92.87172852 221.17539307 -93.74345703 221.35078613 -94.64160156 221.53149414 C-104.57136725 223.52766415 -114.50322406 225.51319638 -124.43688965 227.48986816 C-126.14437743 227.82970678 -127.85181569 228.16979431 -129.5592041 228.51013184 C-134.53859988 229.50248474 -139.51897228 230.4896548 -144.50085449 231.4694519 C-146.07808698 231.78039353 -147.65499535 232.09298392 -149.23156738 232.40725708 C-151.44258067 232.84762378 -153.65469837 233.28196197 -155.8671875 233.71484375 C-157.12644043 233.96355225 -158.38569336 234.21226074 -159.68310547 234.46850586 C-162.57423935 234.93177676 -165.08991137 235.28432452 -168 235 C-170.67578125 232.8125 -170.67578125 232.8125 -173.3125 230 C-174.19550781 229.071875 -175.07851562 228.14375 -175.98828125 227.1875 C-176.65214844 226.465625 -177.31601563 225.74375 -178 225 C-175.19988438 223.45523624 -172.87605321 222.67368048 -169.70751953 222.28564453 C-168.86269012 222.17845093 -168.01786072 222.07125732 -167.14743042 221.96081543 C-165.77894455 221.79845398 -165.77894455 221.79845398 -164.3828125 221.6328125 C-163.42529083 221.5131311 -162.46776917 221.39344971 -161.48123169 221.2701416 C-158.36327386 220.88175243 -155.24418667 220.50338122 -152.125 220.125 C-148.91898276 219.72823992 -145.71327627 219.32902975 -142.50756836 218.92977905 C-140.37242396 218.66410664 -138.2371697 218.39931565 -136.10180664 218.13540649 C-125.90620332 216.87361651 -115.72556703 215.51226284 -105.54736328 214.11767578 C-103.89196533 213.89313721 -103.89196533 213.89313721 -102.203125 213.6640625 C-100.79015137 213.46997803 -100.79015137 213.46997803 -99.34863281 213.27197266 C-97 213 -97 213 -94 213 C-94 211.35 -94 209.7 -94 208 C-95.06524902 208.11972168 -96.13049805 208.23944336 -97.22802734 208.36279297 C-112.22245354 209.98426289 -127.25333947 210.94012814 -142.30322266 211.85986328 C-145.92953595 212.08148843 -149.555427 212.30934142 -153.18123817 212.53901863 C-156.01746531 212.71806526 -158.8538754 212.89406367 -161.69034958 213.06914902 C-163.66773904 213.19166781 -165.6449837 213.3165166 -167.6222229 213.44143677 C-186.97770923 214.61337446 -186.97770923 214.61337446 -191.125 212.125 C-193 210 -193 210 -193 208 C-193.99 207.67 -194.98 207.34 -196 207 C-196 206.34 -196 205.68 -196 205 C-197.32 204.34 -198.64 203.68 -200 203 C-199.6875 201.0625 -199.6875 201.0625 -199 199 C-198.01 198.67 -197.02 198.34 -196 198 C-195.67 197.01 -195.34 196.02 -195 195 C-194.34 195 -193.68 195 -193 195 C-192.5978125 194.071875 -192.5978125 194.071875 -192.1875 193.125 C-191 191 -191 191 -188 189 C-185.4793396 188.83300781 -185.4793396 188.83300781 -182.43115234 188.953125 C-180.71782211 189.01487915 -180.71782211 189.01487915 -178.96987915 189.07788086 C-177.72942841 189.13468018 -176.48897766 189.19147949 -175.2109375 189.25 C-173.92061615 189.3022876 -172.6302948 189.3545752 -171.3008728 189.40844727 C-158.32582889 189.95253729 -145.36933716 190.80416964 -132.41650391 191.72949219 C-128.55020086 192.0053366 -124.68337373 192.27270907 -120.81640625 192.5390625 C-118.32809129 192.7130602 -115.83980866 192.88752106 -113.3515625 193.0625 C-111.63919907 193.18129517 -111.63919907 193.18129517 -109.89224243 193.30249023 C-104.55399736 193.68659681 -99.28432642 194.14497385 -94 195 C-94 193.35 -94 191.7 -94 190 C-94.66080566 189.93006836 -95.32161133 189.86013672 -96.00244141 189.78808594 C-111.95569965 188.08749868 -127.86158682 186.145553 -143.7578125 183.9765625 C-148.45753757 183.33597581 -153.1592045 182.72517564 -157.8671875 182.1484375 C-158.92776367 182.01695312 -159.98833984 181.88546875 -161.08105469 181.75 C-163.05234504 181.50714614 -165.02432605 181.26980851 -166.99707031 181.0390625 C-167.86686523 180.93078125 -168.73666016 180.8225 -169.6328125 180.7109375 C-170.76033936 180.57631104 -170.76033936 180.57631104 -171.91064453 180.43896484 C-174.19196405 179.95966916 -175.96720157 179.12473467 -178 178 C-176.60451667 176.27759216 -175.15612505 174.59798275 -173.6875 172.9375 C-172.88699219 171.99777344 -172.08648437 171.05804688 -171.26171875 170.08984375 C-166.35550686 166.94634272 -162.56127928 167.99402578 -157 169 C-155.44865356 169.27299927 -155.44865356 169.27299927 -153.8659668 169.55151367 C-150.40084654 170.20017343 -146.95116577 170.90587207 -143.5 171.625 C-141.55242517 172.02282251 -139.60484681 172.42062816 -137.65713501 172.81777954 C-135.57934975 173.24210218 -133.50207681 173.66887622 -131.42480469 174.09570312 C-124.28897058 175.55821054 -117.14424061 176.97661896 -110.00073242 178.40106201 C-106.2007148 179.15913253 -102.40115162 179.91947276 -98.6015625 180.6796875 C-96.68851318 181.06229736 -96.68851318 181.06229736 -94.73681641 181.45263672 C-93.83366699 181.6332666 -92.93051758 181.81389648 -92 182 C-91.90130615 181.31542725 -91.8026123 180.63085449 -91.70092773 179.92553711 C-90.63797472 173.29848439 -88.90845446 167.62516628 -86.0625 161.5625 C-85.71509766 160.78712891 -85.36769531 160.01175781 -85.00976562 159.21289062 C-83.29965808 155.46740083 -81.55342192 152.25256777 -79 149 C-91.28775647 140.59710775 -103.59203685 132.22443535 -116 124 C-117.29960576 123.13821171 -118.5990818 122.27622776 -119.8984375 121.4140625 C-120.548125 120.98375732 -121.1978125 120.55345215 -121.8671875 120.11010742 C-123.14816288 119.25564154 -124.42437216 118.39398007 -125.6953125 117.5246582 C-128.47596234 115.62744399 -131.16006066 113.91799361 -134.1640625 112.37890625 C-137.11299854 110.7798353 -138.98374583 109.69297396 -141 107 C-142.15726697 101.72646607 -141.57441897 96.31656669 -141 91 C-134.85069997 94.98023476 -128.99689842 99.21101214 -123.25 103.75 C-121.66689998 104.99118306 -120.08356532 106.2320669 -118.5 107.47265625 C-117.34951172 108.37588623 -117.34951172 108.37588623 -116.17578125 109.29736328 C-113.21556434 111.61385259 -110.23496339 113.9030465 -107.25 116.1875 C-104.00926143 118.6719307 -100.77949995 121.16725546 -97.58203125 123.70703125 C-89.56571026 130.07195 -81.38329414 136.12659787 -73 142 C-72.67 140.68 -72.34 139.36 -72 138 C-72.7940625 137.37351563 -73.588125 136.74703125 -74.40625 136.1015625 C-75.93765625 134.87566406 -75.93765625 134.87566406 -77.5 133.625 C-79.03140625 132.40683594 -79.03140625 132.40683594 -80.59375 131.1640625 C-81.3878125 130.44992188 -82.181875 129.73578125 -83 129 C-83 128.34 -83 127.68 -83 127 C-83.55300781 126.76667969 -84.10601562 126.53335938 -84.67578125 126.29296875 C-87.60462669 124.66364465 -89.74867688 122.6105541 -92.1875 120.3125 C-96.42300399 116.37871874 -100.74758329 112.77759256 -105.41796875 109.375 C-105.94003906 108.92125 -106.46210937 108.4675 -107 108 C-107 107.34 -107 106.68 -107 106 C-107.55171875 105.76667969 -108.1034375 105.53335938 -108.671875 105.29296875 C-111.61255267 103.65980716 -113.79077251 101.60660793 -116.25 99.3125 C-117.23390558 98.40313767 -118.21828287 97.49428546 -119.203125 96.5859375 C-120.58757812 95.30589844 -120.58757812 95.30589844 -122 94 C-123.32713583 92.80557775 -124.65972691 91.61716185 -126 90.4375 C-126.61875 89.87417969 -127.2375 89.31085938 -127.875 88.73046875 C-130.05096893 86.87443341 -130.05096893 86.87443341 -132.9375 85.23828125 C-140.49942213 80.32881905 -140.49942213 80.32881905 -141.48583984 75.73974609 C-141.95760854 70.12278384 -141.56365872 64.59673252 -141 59 C-125.3252848 56.93408565 -125.3252848 56.93408565 -120.09960938 60.18066406 C-116.62994973 63.37250399 -114.01291753 67.20257865 -111.37060547 71.08398438 C-109.19155815 74.13014813 -106.64215157 76.79310886 -104.0625 79.5 C-94 90.30618401 -94 90.30618401 -94 93 C-93.34 93 -92.68 93 -92 93 C-90.60674046 94.55240341 -89.28619872 96.17029985 -88 97.8125 C-83.83993799 103.03456158 -79.44945698 107.92804945 -74.87109375 112.78515625 C-73 115 -73 115 -73 117 C-72.34 117 -71.68 117 -71 117 C-69.39821407 118.78104718 -67.86618074 120.62537278 -66.375 122.5 C-65.55773437 123.5209375 -64.74046875 124.541875 -63.8984375 125.59375 C-63.27195313 126.3878125 -62.64546875 127.181875 -62 128 C-60.68 127.67 -59.36 127.34 -58 127 C-64.29482956 118.01518905 -70.83336851 109.29181104 -77.65625 100.70263672 C-79.79782423 97.98909408 -81.89908835 95.24506892 -84 92.5 C-87.48499449 87.95031926 -91.01159251 83.43589263 -94.5625 78.9375 C-98.14845953 74.38723816 -101.69874235 69.81281581 -105.1875 65.1875 C-105.92355469 64.21167969 -106.65960938 63.23585937 -107.41796875 62.23046875 C-109 60 -109 60 -109 59 C-95.14908247 57.33587277 -95.14908247 57.33587277 -90.47265625 60.95703125 C-88.38718932 63.86986134 -86.6905473 66.84183472 -85 70 C-83.92855015 71.67722352 -82.85658359 73.35425311 -81.76293945 75.01708984 C-80.60056092 76.78721704 -79.46240688 78.57113386 -78.328125 80.359375 C-69.55711176 94.12560516 -60.21246801 107.52838095 -51 121 C-50.52111328 120.68256836 -50.04222656 120.36513672 -49.54882812 120.03808594 C-44.7001433 116.90498127 -39.84312094 114.42033874 -34.5 112.25 C-33.79230469 111.94707031 -33.08460938 111.64414063 -32.35546875 111.33203125 C-27.53532549 109.34933978 -23.19432913 108.4445597 -18 108 C-18.17539307 107.12827148 -18.35078613 106.25654297 -18.53149414 105.35839844 C-20.52766415 95.42863275 -22.51319638 85.49677594 -24.48986816 75.56311035 C-24.82970678 73.85562257 -25.16979431 72.14818431 -25.51013184 70.4407959 C-26.50248474 65.46140012 -27.4896548 60.48102772 -28.4694519 55.49914551 C-28.78039353 53.92191302 -29.09298392 52.34500465 -29.40725708 50.76843262 C-29.84762378 48.55741933 -30.28196197 46.34530163 -30.71484375 44.1328125 C-30.96355225 42.87355957 -31.21226074 41.61430664 -31.46850586 40.31689453 C-31.93177676 37.42576065 -32.28432452 34.91008863 -32 32 C-29.8125 29.32421875 -29.8125 29.32421875 -27 26.6875 C-26.071875 25.80449219 -25.14375 24.92148437 -24.1875 24.01171875 C-23.465625 23.34785156 -22.74375 22.68398438 -22 22 C-20.45523624 24.80011562 -19.67368048 27.12394679 -19.28564453 30.29248047 C-19.17845093 31.13730988 -19.07125732 31.98213928 -18.96081543 32.85256958 C-18.79845398 34.22105545 -18.79845398 34.22105545 -18.6328125 35.6171875 C-18.5131311 36.57470917 -18.39344971 37.53223083 -18.2701416 38.51876831 C-17.88175243 41.63672614 -17.50338122 44.75581333 -17.125 47.875 C-16.72823992 51.08101724 -16.32902975 54.28672373 -15.92977905 57.49243164 C-15.66410664 59.62757604 -15.39931565 61.7628303 -15.13540649 63.89819336 C-13.87361651 74.09379668 -12.51226284 84.27443297 -11.11767578 94.45263672 C-10.89313721 96.10803467 -10.89313721 96.10803467 -10.6640625 97.796875 C-10.46997803 99.20984863 -10.46997803 99.20984863 -10.27197266 100.65136719 C-10 103 -10 103 -10 106 C-8.35 106 -6.7 106 -5 106 C-5.11972168 104.93475098 -5.23944336 103.86950195 -5.36279297 102.77197266 C-6.98426289 87.77754646 -7.94012814 72.74666053 -8.85986328 57.69677734 C-9.08148843 54.07046405 -9.30934142 50.444573 -9.53901863 46.81876183 C-9.71806526 43.98253469 -9.89406367 41.1461246 -10.06914902 38.30965042 C-10.19166781 36.33226096 -10.3165166 34.3550163 -10.44143677 32.3777771 C-11.61337446 13.02229077 -11.61337446 13.02229077 -9.125 8.875 C-7 7 -7 7 -5 7 C-4.67 6.01 -4.34 5.02 -4 4 C-3.34 4 -2.68 4 -2 4 C-1.34 2.68 -0.68 1.36 0 0 Z " fill="#0038A8" transform="translate(200,0)"/>
</svg>
